# xmcd CD database file
#
# Track frame offsets:
#	150
#	20840
#	46312
#	66425
#	93647
#	116287
#	139687
#	164822
#	183675
#
# Disc length: 2686 seconds
#
# Revision: 0
# Processed by: cddbd v1.5PL3 Copyright (c) Steve Scherf et al.
# Submitted via: CDex 1.51
#
DISCID=860a7c09
DTITLE=NANIWA EXPRESS - SILENT SAVANNA
DYEAR=1900
DGENRE=Jazz
TTITLE0=THE LADY OF TOLEDO
TTITLE1=PARADISE
TTITLE2=BOYS BE GO GO
TTITLE3=METEOR
TTITLE4=ANIMALS
TTITLE5=NIGHT FLOWER
TTITLE6=HI-LAND
TTITLE7=LAZY FANTASY
TTITLE8=LET ME TRY
EXTD=
EXTT0=
EXTT1=
EXTT2=
EXTT3=
EXTT4=
EXTT5=
EXTT6=
EXTT7=
EXTT8=
PLAYORDER=
